<svg id="visual" viewBox="0 0 900 600" width="900" height="600" xmlns="http://www.w3.org/2000/svg" xmlns:xlink="http://www.w3.org/1999/xlink" version="1.1"><path d="M332 600L381.8 583.3C431.7 566.7 531.3 533.3 601 500C670.7 466.7 710.3 433.3 684.8 400C659.3 366.7 568.7 333.3 568.3 300C568 266.7 658 233.3 636 200C614 166.7 480 133.3 409.7 100C339.3 66.7 332.7 33.3 329.3 16.7L326 0L900 0L900 16.7C900 33.3 900 66.7 900 100C900 133.3 900 166.7 900 200C900 233.3 900 266.7 900 300C900 333.3 900 366.7 900 400C900 433.3 900 466.7 900 500C900 533.3 900 566.7 900 583.3L900 600Z" fill="#ffc75e" stroke-linecap="round" stroke-linejoin="miter"></path></svg>